<svg id="Layer_1" data-name="Layer 1" xmlns="http://www.w3.org/2000/svg" viewBox="0 0 484.51 212.32"><defs><style>.cls-1{fill:#231f20;}</style></defs><title>mene signature</title><path class="cls-1" d="M481.38,119.05c-24.09,5.17-48.31,9.73-72.54,14.17s-48.51,8.76-72.69,13.49C314.2,151,292.32,155.63,270.6,161q7.63-7.84,14.82-16.1c-.21,2.6.55,4.93,3.24,6.34,5.38,2.83,12.18-.81,17-3.2a79.12,79.12,0,0,0,13.13-8.25,2.48,2.48,0,0,0,.74-.32q11.63-7.37,22.58-15.74c2.56-.73,5.11-1.47,7.67-2.19,4.2-1.17,8.71-2.46,11.91-5.6,3.49-3.43,3.53-8,4.26-12.41,3.4-3.18,6.75-6.42,10-9.75,4.2-4.31,9.57-9.72,7.59-16.31a2.53,2.53,0,0,0-3.67-1.5,37.81,37.81,0,0,0-16.61,18.78,32,32,0,0,0-1.75,6.09c-.79.74-1.56,1.49-2.36,2.21q-9.27,8.43-19.21,16.08l-.75.21-2.11.62.55-.83c1.31-2.06-1.34-4.84-3.42-3.42a56.37,56.37,0,0,0-9.1,7.76l-1.1.33q-13.86,4.16-27.61,8.65,1.26-2,2.64-4c1.6-2,3.18-4.09,4.74-6.15,2.2-1.73,4.37-3.49,6.49-5.32,1.76-1.51.24-4.15-1.76-4.27-11.61-.63-22.74,2.07-33.86,5a34,34,0,0,0,.72-6.82,23,23,0,0,0-2.54-10.41,345.93,345.93,0,0,0,20.65-32.35q1.43-2.55,2.81-5.11a2.52,2.52,0,0,0-.64-3.23,2.49,2.49,0,0,0-3.29.2c-.13.17-.25.34-.39.51h0a269.54,269.54,0,0,0-23.19,34.64,14.43,14.43,0,0,0-10.59-3.79c-5.29.25-10.19,2.8-14.33,6a53.75,53.75,0,0,0-10.77,10.9,48.94,48.94,0,0,0-3.94,6.21,15,15,0,0,0-2.12,6.12l-.07,0a148,148,0,0,0-12.35,9.81q-2.25,1.59-4.57,3.09c-1,.63-2,1.23-3,1.83.58-1,1.16-2.09,1.72-3.14,2.32-4.32,4.55-8.73,6.44-13.25s3.41-9.6,3-14.64c4.19-2,9.09-2.57,13.22,0,2.73,1.72,5.24-2.6,2.53-4.32-5.07-3.21-11.38-3-16.77-.77-2.3-6.83-7.91-12.12-14.26-15.54a54.83,54.83,0,0,0-20-5.93c.58-1.15,1.16-2.29,1.73-3.44a462.9,462.9,0,0,0,23.38-57q2.33-7,4.44-14.08c.57-1.92-1.89-4.19-3.67-2.82-7.92,6.09-13.49,14.45-19.23,22.5-6.07,8.51-12,17.08-17.81,25.81-6.73,10.21-13.14,20.66-19,31.39A164.21,164.21,0,0,0,133.69,86c.91-1.88,1.81-3.76,2.66-5.67a157.46,157.46,0,0,0,5.71-14.68c1.73-5.24,3.19-10.75,3.08-16.31,0-2.61-.72-5.19-3-6.72A7.4,7.4,0,0,0,136,42c-4.54,1.29-8,5.1-11.2,8.39a121.81,121.81,0,0,0-17.57,24.12,295.2,295.2,0,0,0-13.64,27.78c-.3.69-.59,1.39-.89,2.08-9.76,5.09-19.33,10.55-28.71,16.29-17.26,10.55-34,22-50.54,33.54L1.23,162.71a2.58,2.58,0,0,0-.9,3.42,2.52,2.52,0,0,0,3.42.9c16-11.23,32-22.46,48.41-33.07,12.2-7.89,24.65-15.44,37.44-22.36q-4.51,10.86-8.5,21.91c-3.78,10.52-7.23,21.17-10.21,31.93-.63,2.24-1.19,4.5-1.71,6.76-3.07,3.85-6.19,7.66-9.4,11.38a101.08,101.08,0,0,1-9.93,10.55A22,22,0,0,1,39,199.68a2.53,2.53,0,0,0-1.75,3.08,2.56,2.56,0,0,0,3.08,1.75c9.91-1.64,16.85-10.22,23-17.39,1.36-1.59,2.7-3.2,4-4.81-.58,4.76-1.24,10.68,2.8,14.15,3.24,2.78,7.73,2.95,11.75,2.25,4.39-.77,8.66-2.86,12.53-5C103,189,110.36,182.42,117,175.34c2-2.18,4-4.42,6-6.68-.84,7.62-.85,15.59,3.34,22.1a17.47,17.47,0,0,0,8.13,6.93q-10.16,4.94-20.25,10c-2.64,1.34-.72,5.11,1.93,4.57,24-5,47.29-12.88,70.46-20.86s46.59-15.57,70.38-21.83,47.6-11.48,71.6-16.28c24.16-4.83,48.41-9.2,72.65-13.62s48.48-8.89,72.6-13.93l8.91-1.88C485.85,123.19,484.52,118.37,481.38,119.05Zm-103-36.18c-1.33,3.23-4.79,6.14-6.9,8.28-.62.63-1.26,1.24-1.89,1.86A33,33,0,0,1,378.38,82.87Zm-18.31,26c-1.05,3.31-3.51,5.16-7,6.42l-.79.26Q356.23,112.25,360.07,108.85Zm-43.46,26.23a74,74,0,0,1-8.19,5.71,76.15,76.15,0,0,1-7.64,4,21.93,21.93,0,0,1-6.82,2.31c-1.55.14-3.94.15-3.58-2a22.62,22.62,0,0,1,2.35-6.26q13.32-4.4,26.74-8.51A54.65,54.65,0,0,0,316.61,135.08Zm-15.88-17.33h.13l-1.05,1.33q-4.26,3.3-8.71,6.32a2.65,2.65,0,0,0,.38,4.55q-2.3,2.84-4.64,5.64-11.58,3.87-23.08,7.94c.51-.72,1-1.46,1.47-2.2a72.24,72.24,0,0,0,6.63-14.06c.48-1.35.95-2.73,1.37-4.12C282.3,120.74,291.38,118.35,300.73,117.75ZM183.47,174.32a4.8,4.8,0,0,0,.18.79c-2,.87-4,1.73-6,2.61l-3.79,1.7.69-.71c3.73-3.79,7.29-7.75,10.7-11.83-.2.49-.4,1-.59,1.49C183.94,170.22,183.2,172.32,183.47,174.32Zm5.08-1.33a20.37,20.37,0,0,1,1.13-3.9,49.75,49.75,0,0,1,5.42-9.44,140.55,140.55,0,0,1,22.21-25.09,142.52,142.52,0,0,0,11.46-9c2.34,2.45,6.51,3,9.81,3.14,1.67.07,3.32.06,5,0-.91,1-1.81,2-2.73,3A294.8,294.8,0,0,1,208.45,162a108.65,108.65,0,0,1-9,6.38C195.83,169.9,192.19,171.43,188.55,173Zm32.3-14.93q8.66-7.65,16.77-15.87,6.8-6.87,13.17-14.12,1.25-.16,2.46-.36c-.3.76-.6,1.52-.89,2.28q-1.43,3.69-2.74,7.43a31.46,31.46,0,0,0-1.89,6.71,9.91,9.91,0,0,0,.57,5q-15.51,5.75-30.86,11.9Q219.15,159.56,220.85,158.06Zm32.2-10.67c-.06-.15-.27-.49-.16-.21a4.61,4.61,0,0,1-.24-2.14,20.91,20.91,0,0,1,1.43-5.25c.79-2.29,1.62-4.57,2.47-6.83s1.63-4.22,2.49-6.32c2.83-.6,5.64-1.28,8.45-2a74.68,74.68,0,0,1-3.26,8.09A50.41,50.41,0,0,1,257,144.16a32.2,32.2,0,0,1-2.26,2.41l-.44.38Zm16.54-42c1.36,4.47.73,9.25-.42,13.69-2.58.67-5.16,1.32-7.74,1.91.21-.5.42-1,.64-1.5q2.87-6.43,6.06-12.69c.45-.59.89-1.19,1.33-1.79C269.5,105.17,269.55,105.3,269.59,105.42ZM232.88,118c3.88-7.81,10.17-15.06,17.86-19.29,3.6-2,8.12-3.36,12.09-1.62a10.88,10.88,0,0,1,3.46,2.5c-.8,1.49-1.57,3-2.34,4.51q-7.47,9.9-15.62,19.23a65.31,65.31,0,0,1-10.83.27c-1.58-.1-3.53-.24-4.82-1.27S232.22,119.33,232.88,118Zm-34.5,22.16a5,5,0,0,1-1.52.41c-.89.07-1.1-.45-1.18-1a7.65,7.65,0,0,1,.46-3.28c.51-1.65,1.13-3.28,1.78-4.89a76.59,76.59,0,0,1,4.33-9c3-5.28,6.46-10.59,11-14.68a33.06,33.06,0,0,1-2.4,8.77A155.17,155.17,0,0,1,198.38,140.17ZM168.29,63.46c5.35-8.61,11-17.05,16.74-25.39,5.53-8,11-16.17,17.05-23.79q1.35-1.71,2.8-3.35A449.72,449.72,0,0,1,187.27,57q-4.61,10.29-9.7,20.34c-.83,0-1.65,0-2.48,0a93.8,93.8,0,0,0-15.87,1.48Q163.6,71,168.29,63.46Zm-11.53,21A89.45,89.45,0,0,1,175,82.32Q168,95.84,160,108.88a453.49,453.49,0,0,1-29.26,42.32q.73-3.42,1.56-6.79a224.55,224.55,0,0,1,8.87-27.95A283.72,283.72,0,0,1,156,84.59Zm-53.21,8a189.35,189.35,0,0,1,14-25.13,103.23,103.23,0,0,1,8.48-11c1.59-1.77,3.24-3.49,5-5.13a21.78,21.78,0,0,1,4.83-3.84,7.32,7.32,0,0,1,2.26-.78,2.29,2.29,0,0,1,1.25.11,2.42,2.42,0,0,1,.75,1.84,22,22,0,0,1-.1,4.06c-.47,5.16-2.19,10.21-3.93,15.07a162.47,162.47,0,0,1-9.34,21c-3.15,1.27-6.27,2.58-9.35,3.9-6,2.56-11.87,5.32-17.7,8.21Q101.58,96.57,103.55,92.42Zm-7,15.52c2.07-1.06,4.15-2.12,6.23-3.15,6.63-3.27,13.35-6.35,20.17-9.19-10,17.46-22,33.7-33.76,50-4,5.58-8.09,11.14-12.25,16.62,1.07-3.52,2.2-7,3.3-10.49C84.92,136.88,90.36,122.25,96.52,107.94Zm-12,84.87c-3,1.11-6.88,1.93-9.8.7a4.22,4.22,0,0,1-2.58-3c-.6-2.34-.13-5.12.13-7.49.31-2.83.79-5.64,1.38-8.43,3.54-4.47,7-9,10.41-13.58,6.64-8.92,13.1-18,19.56-27,6.07-8.5,12.07-17,17.63-25.89,3.17-5,6.19-10.15,9-15.39a200.84,200.84,0,0,1,19.27-6.47c-2.9,5.58-5.67,11.23-8.22,17-7.94,18-14.08,36.76-17.08,56.19C113.35,172.76,101.08,186.72,84.54,192.81Zm53.36.74c-8.91-2-10.66-12.48-10.27-20.13.2-3.95.63-7.9,1.22-11.84,2.51-3.11,5-6.26,7.43-9.42q9.34-12.12,17.86-24.85a460.4,460.4,0,0,0,26.4-44.79c1.27.1,2.53.23,3.79.42,8.31,1.23,17,4.15,23.17,10.12a19.16,19.16,0,0,1,5.3,8.64c-5.88,4.14-10.25,10.33-13.87,16.44a87.14,87.14,0,0,0-5.33,10.68c-1.33,3.18-3,6.73-2.94,10.24a6.28,6.28,0,0,0,4.42,6.25,197.46,197.46,0,0,1-13.66,18.38,168.15,168.15,0,0,1-19.47,20q-1.45,1.24-3,2.4-8.16,3.75-16.27,7.61A13.93,13.93,0,0,1,137.9,193.55Zm55.92-9.92c-18.95,6.5-37.87,13.23-57.2,18.54,2.54-1.23,5.08-2.47,7.63-3.69a32.56,32.56,0,0,0,7.32-2.23,49.53,49.53,0,0,0,10-5.88q13.21-6.06,26.56-11.82a8.59,8.59,0,0,0,3.34-.32,28.33,28.33,0,0,0,5-2.33c1.76-1,3.49-2,5.17-3,.12-.07.22-.15.33-.22q14.42-6,29-11.66,11.32-4.4,22.75-8.55a5.27,5.27,0,0,0,.95-.17,6.91,6.91,0,0,0,1.93-.89q11.84-4.3,23.77-8.37-9.26,10.48-19.21,20.31C238.46,169.18,216,176,193.82,183.63Z"/></svg>