<?xml version="1.0" encoding="utf-8"?>
<!-- Generator: Adobe Illustrator 24.0.1, SVG Export Plug-In . SVG Version: 6.00 Build 0)  -->
<svg version="1.1" id="Layer_1" xmlns="http://www.w3.org/2000/svg" xmlns:xlink="http://www.w3.org/1999/xlink" x="0px" y="0px"
	 viewBox="0 0 344.4 215.2" style="enable-background:new 0 0 344.4 215.2;" xml:space="preserve">
<style type="text/css">
	.st0{fill:none;}
	.st1{opacity:0.71;fill:#3E474E;}
	.st2{opacity:0.69;fill:#448CD4;}
</style>
<g>
	<path class="st0" d="M213.8,187.1L120.2,24.7c-2.7-4.7-7.6-7.9-13.1-8c-5.5-0.1-10.5,2.7-13.2,7.5L21,150.4
		c-5.8,10.1-5.8,22.1,0,32.1c5.8,10.1,16.2,16.1,27.8,16.1"/>
	<path class="st1" d="M336.1,198.6c4.7,0,8.6,4,8.3,8.8c-0.2,4.5-4.3,7.9-8.8,7.9l-100.3,0c-0.1,0-0.1,0-0.2,0c-0.1,0-0.1,0-0.2,0
		l-184.8,0c-17.7,0-34.5-8.9-43.4-24.1c-9-15.3-9-33.6-0.1-49L79.5,15.8C85.3,5.9,95.5,0,106.9,0c11.4,0,21.7,5.9,27.4,15.8
		l89.9,156.1c2.4,4.1,0.8,9.4-3.4,11.6h0c-3.9,2-8.8,0.6-11-3.3L120.2,24.7c-2.7-4.7-7.6-7.9-13.1-8c-5.5-0.1-10.5,2.7-13.2,7.5
		L21,150.4c-6,10.4-5.8,22.9,0.7,33.2c6,9.5,16.8,14.9,28.1,14.9L336.1,198.6z"/>
</g>
<path class="st2" d="M301.9,159c-2.9,0-5.7-1.5-7.2-4.2L218.9,24.1c-2.7-4.7-7.6-7.5-13-7.5c-5.4,0-10.3,2.8-13,7.5l-65.6,112.8
	c-2.3,4-7.4,5.3-11.4,3c-4-2.3-5.3-7.4-3-11.4l65.6-112.8c5.7-9.9,16-15.8,27.4-15.8c11.4,0,21.7,5.9,27.4,15.8l75.8,130.7
	c2.3,4,0.9,9.1-3,11.4C304.8,158.7,303.3,159,301.9,159z"/>
</svg>
